<svg width="24" height="17" viewBox="0 0 24 17" fill="none" xmlns="http://www.w3.org/2000/svg">
<rect width="24" height="17" rx="8.5" fill="#E571DA"/>
<path d="M11.63 12.066C11.0067 12.066 10.442 11.978 9.936 11.802C9.43733 11.6187 9.04133 11.3767 8.748 11.076L9.177 10.449C9.42633 10.7057 9.75633 10.9183 10.167 11.087C10.5777 11.2557 11.0653 11.34 11.63 11.34C12.312 11.34 12.8327 11.2007 13.192 10.922C13.5513 10.6433 13.731 10.2693 13.731 9.8C13.731 9.33067 13.5513 8.95667 13.192 8.678C12.84 8.39933 12.2973 8.26 11.564 8.26H10.97V7.677L13.467 4.696L13.588 5.004H8.902V4.3H14.237V4.861L11.74 7.842L11.355 7.589H11.696C12.6273 7.589 13.335 7.79433 13.819 8.205C14.303 8.61567 14.545 9.14367 14.545 9.789C14.545 10.2217 14.435 10.6103 14.215 10.955C14.0023 11.2997 13.6797 11.571 13.247 11.769C12.8143 11.967 12.2753 12.066 11.63 12.066Z" fill="white"/>
</svg>
