<svg width="24" height="17" viewBox="0 0 24 17" fill="none" xmlns="http://www.w3.org/2000/svg">
<rect width="24" height="17" rx="8.5" fill="#FF9E41"/>
<path d="M11.707 12.066C11.311 12.066 10.9297 12.0257 10.563 11.945C10.2037 11.8643 9.87367 11.7543 9.573 11.615C9.27967 11.4683 9.02667 11.2997 8.814 11.109L9.199 10.482C9.463 10.724 9.81133 10.9293 10.244 11.098C10.684 11.2593 11.1753 11.34 11.718 11.34C12.18 11.34 12.565 11.2703 12.873 11.131C13.181 10.9917 13.412 10.8047 13.566 10.57C13.72 10.328 13.797 10.053 13.797 9.745C13.797 9.437 13.7163 9.16567 13.555 8.931C13.401 8.689 13.1333 8.502 12.752 8.37C12.378 8.23067 11.8573 8.161 11.19 8.161H9.375L9.782 4.3H14.138V5.004H10.101L10.508 4.619L10.167 7.853L9.782 7.457H11.344C12.136 7.457 12.7703 7.556 13.247 7.754C13.7237 7.94467 14.0683 8.20867 14.281 8.546C14.501 8.88333 14.611 9.27567 14.611 9.723C14.611 10.1483 14.5047 10.5407 14.292 10.9C14.0867 11.252 13.7677 11.5343 13.335 11.747C12.9097 11.9597 12.367 12.066 11.707 12.066Z" fill="white"/>
</svg>
