<svg width="24" height="17" viewBox="0 0 24 17" fill="none" xmlns="http://www.w3.org/2000/svg">
<rect width="24" height="17" rx="8.5" fill="#52AF4C"/>
<path d="M12.158 12.066C11.4833 12.066 10.9003 11.9193 10.409 11.626C9.925 11.3327 9.551 10.9 9.287 10.328C9.03033 9.756 8.902 9.05933 8.902 8.238C8.902 7.60733 8.99 7.04633 9.166 6.555C9.34933 6.06367 9.60233 5.64567 9.925 5.301C10.255 4.95633 10.6473 4.69233 11.102 4.509C11.564 4.32567 12.0773 4.234 12.642 4.234C12.972 4.234 13.2947 4.27067 13.61 4.344C13.9253 4.41 14.204 4.51267 14.446 4.652L14.138 5.301C13.9253 5.169 13.6907 5.07367 13.434 5.015C13.1773 4.95633 12.9133 4.927 12.642 4.927C12.0627 4.927 11.553 5.05167 11.113 5.301C10.673 5.543 10.3283 5.89867 10.079 6.368C9.82967 6.83733 9.705 7.41667 9.705 8.106C9.705 8.26733 9.716 8.469 9.738 8.711C9.76 8.953 9.80033 9.18767 9.859 9.415L9.628 9.129C9.68667 8.777 9.837 8.47267 10.079 8.216C10.321 7.952 10.6253 7.75033 10.992 7.611C11.366 7.46433 11.7693 7.391 12.202 7.391C12.7227 7.391 13.1847 7.49 13.588 7.688C13.9987 7.87867 14.3177 8.14633 14.545 8.491C14.7797 8.83567 14.897 9.239 14.897 9.701C14.897 10.1703 14.776 10.5847 14.534 10.944C14.292 11.296 13.9657 11.571 13.555 11.769C13.1517 11.967 12.686 12.066 12.158 12.066ZM12.136 11.395C12.5173 11.395 12.8547 11.3253 13.148 11.186C13.4413 11.0467 13.6723 10.8523 13.841 10.603C14.0097 10.3463 14.094 10.053 14.094 9.723C14.094 9.393 14.0097 9.10333 13.841 8.854C13.6723 8.60467 13.4377 8.41033 13.137 8.271C12.8363 8.13167 12.4807 8.062 12.07 8.062C11.6813 8.062 11.333 8.13167 11.025 8.271C10.717 8.41033 10.4713 8.60467 10.288 8.854C10.1047 9.10333 10.013 9.393 10.013 9.723C10.013 9.987 10.0937 10.2473 10.255 10.504C10.4163 10.7607 10.6547 10.9733 10.97 11.142C11.2853 11.3107 11.674 11.395 12.136 11.395Z" fill="white"/>
</svg>
