<svg width="24" height="17" viewBox="0 0 24 17" fill="none" xmlns="http://www.w3.org/2000/svg">
<rect width="24" height="17" rx="8.5" fill="#61D1FB"/>
<path d="M11.839 12.066C11.1863 12.066 10.6253 11.978 10.156 11.802C9.694 11.6187 9.33467 11.362 9.078 11.032C8.82867 10.702 8.704 10.3133 8.704 9.866C8.704 9.426 8.825 9.04833 9.067 8.733C9.31633 8.41767 9.672 8.17567 10.134 8.007C10.6033 7.83833 11.1717 7.754 11.839 7.754C12.5063 7.754 13.0747 7.83833 13.544 8.007C14.0133 8.17567 14.3727 8.41767 14.622 8.733C14.8713 9.04833 14.996 9.426 14.996 9.866C14.996 10.3133 14.8677 10.702 14.611 11.032C14.3543 11.362 13.9913 11.6187 13.522 11.802C13.0527 11.978 12.4917 12.066 11.839 12.066ZM11.839 11.395C12.5723 11.395 13.1443 11.2557 13.555 10.977C13.973 10.691 14.182 10.3133 14.182 9.844C14.182 9.37467 13.973 9.00067 13.555 8.722C13.1443 8.44333 12.5723 8.304 11.839 8.304C11.0983 8.304 10.5263 8.44333 10.123 8.722C9.71967 9.00067 9.518 9.37467 9.518 9.844C9.518 10.3133 9.71967 10.691 10.123 10.977C10.5263 11.2557 11.0983 11.395 11.839 11.395ZM11.839 8.216C11.223 8.216 10.7023 8.13533 10.277 7.974C9.85167 7.81267 9.529 7.58533 9.309 7.292C9.089 6.99867 8.979 6.654 8.979 6.258C8.979 5.84 9.09633 5.48067 9.331 5.18C9.56567 4.87933 9.89567 4.64833 10.321 4.487C10.7537 4.31833 11.2597 4.234 11.839 4.234C12.4257 4.234 12.9317 4.31833 13.357 4.487C13.7897 4.64833 14.1233 4.87933 14.358 5.18C14.6 5.48067 14.721 5.84 14.721 6.258C14.721 6.654 14.6073 6.99867 14.38 7.292C14.16 7.58533 13.8337 7.81267 13.401 7.974C12.9757 8.13533 12.455 8.216 11.839 8.216ZM11.839 7.677C12.4917 7.677 13.0013 7.55233 13.368 7.303C13.7347 7.04633 13.918 6.709 13.918 6.291C13.918 5.86567 13.731 5.52833 13.357 5.279C12.983 5.02967 12.477 4.905 11.839 4.905C11.2083 4.905 10.706 5.02967 10.332 5.279C9.96533 5.52833 9.782 5.86567 9.782 6.291C9.782 6.709 9.96167 7.04633 10.321 7.303C10.6803 7.55233 11.1863 7.677 11.839 7.677Z" fill="white"/>
</svg>
