<svg width="24" height="17" viewBox="0 0 24 17" fill="none" xmlns="http://www.w3.org/2000/svg">
<rect width="24" height="17" rx="8.5" fill="#5B6167"/>
<path d="M11.542 4.234C12.2167 4.234 12.796 4.38067 13.28 4.674C13.7713 4.96733 14.1453 5.4 14.402 5.972C14.666 6.53667 14.798 7.23333 14.798 8.062C14.798 8.69267 14.7063 9.25367 14.523 9.745C14.347 10.2363 14.094 10.6543 13.764 10.999C13.4413 11.3437 13.049 11.6077 12.587 11.791C12.1323 11.9743 11.6227 12.066 11.058 12.066C10.7353 12.066 10.4127 12.033 10.09 11.967C9.77467 11.8937 9.496 11.7873 9.254 11.648L9.562 10.999C9.77467 11.131 10.0093 11.2263 10.266 11.285C10.5227 11.3437 10.7867 11.373 11.058 11.373C11.6373 11.373 12.147 11.252 12.587 11.01C13.027 10.7607 13.3717 10.4013 13.621 9.932C13.8703 9.46267 13.995 8.88333 13.995 8.194C13.995 8.02533 13.984 7.82 13.962 7.578C13.94 7.336 13.8997 7.105 13.841 6.885L14.072 7.171C14.0207 7.51567 13.8703 7.82 13.621 8.084C13.379 8.348 13.071 8.55333 12.697 8.7C12.3303 8.83933 11.9307 8.909 11.498 8.909C10.9773 8.909 10.5117 8.81367 10.101 8.623C9.69767 8.425 9.37867 8.15367 9.144 7.809C8.91667 7.46433 8.803 7.061 8.803 6.599C8.803 6.12967 8.924 5.719 9.166 5.367C9.408 5.00767 9.73433 4.729 10.145 4.531C10.5557 4.333 11.0213 4.234 11.542 4.234ZM11.564 4.905C11.19 4.905 10.8527 4.97467 10.552 5.114C10.2587 5.25333 10.0277 5.44767 9.859 5.697C9.69033 5.94633 9.606 6.23967 9.606 6.577C9.606 6.89967 9.69033 7.18933 9.859 7.446C10.0277 7.69533 10.2623 7.88967 10.563 8.029C10.8637 8.16833 11.2193 8.238 11.63 8.238C12.026 8.238 12.3743 8.16833 12.675 8.029C12.983 7.88967 13.2287 7.69533 13.412 7.446C13.5953 7.18933 13.687 6.89967 13.687 6.577C13.687 6.30567 13.6063 6.04533 13.445 5.796C13.2837 5.53933 13.0453 5.32667 12.73 5.158C12.4147 4.98933 12.026 4.905 11.564 4.905Z" fill="white"/>
</svg>
