<svg width="16" height="16" viewBox="0 0 16 16" fill="none" xmlns="http://www.w3.org/2000/svg">
<path d="M12.0414 5.66668L3.95849 10.3333M12.0414 5.66668L12.7734 2.93463M12.0414 5.66668L14.7734 6.39873M3.95849 10.3333L1.22644 9.60129M3.95849 10.3333L3.22644 13.0654M12.0413 10.3332L3.95844 5.66658M12.0413 10.3332L14.7735 9.60121M12.0413 10.3332L12.7735 13.0653M3.95844 5.66658L3.22654 2.9347M3.95844 5.66658L1.22654 6.3988M7.99994 3.33334L7.99994 12.6667M7.99994 3.33334L5.99994 1.33334M7.99994 3.33334L9.99994 1.33334M7.99994 12.6667L5.99994 14.6667M7.99994 12.6667L9.99994 14.6667" stroke="#4BA7B7" stroke-width="1.3" stroke-linecap="round" stroke-linejoin="round"/>
</svg>
