<svg width="16" height="16" viewBox="0 0 16 16" fill="none" xmlns="http://www.w3.org/2000/svg">
<path d="M6.07828 10.7928C6.07828 11.3768 6.07828 11.6687 6.18366 11.8119C6.27521 11.9362 6.41335 12.0057 6.55721 11.9996C6.7228 11.9927 6.91776 11.7987 7.30767 11.4108L9.61214 9.11795C9.82695 8.90423 9.93435 8.79737 9.97393 8.67119C10.0087 8.56038 10.0087 8.43962 9.97393 8.32881C9.93435 8.20263 9.82695 8.09577 9.61214 7.88205L7.30767 5.58922C6.91776 5.20127 6.7228 5.0073 6.55721 5.00036C6.41335 4.99434 6.27521 5.06377 6.18366 5.18812C6.07828 5.33127 6.07828 5.62324 6.07828 6.20717V10.7928Z" fill="#E00020"/>
<path d="M1 10.7928C1 11.3768 1 11.6687 1.10538 11.8119C1.19693 11.9362 1.33507 12.0057 1.47893 11.9996C1.64452 11.9927 1.83948 11.7987 2.2294 11.4108L4.53386 9.11795C4.74867 8.90423 4.85607 8.79737 4.89565 8.67119C4.93041 8.56038 4.93041 8.43962 4.89565 8.32881C4.85607 8.20263 4.74867 8.09577 4.53386 7.88205L2.2294 5.58922C1.83948 5.20127 1.64452 5.0073 1.47893 5.00036C1.33507 4.99434 1.19693 5.06377 1.10538 5.18812C1 5.33127 1 5.62324 1 6.20717V10.7928Z" fill="#E00020"/>
<path d="M6.07828 10.7928C6.07828 11.3768 6.07828 11.6687 6.18366 11.8119C6.27521 11.9362 6.41335 12.0057 6.55721 11.9996C6.7228 11.9927 6.91776 11.7987 7.30767 11.4108L9.61214 9.11795C9.82695 8.90423 9.93435 8.79737 9.97393 8.67119C10.0087 8.56038 10.0087 8.43962 9.97393 8.32881C9.93435 8.20263 9.82695 8.09577 9.61214 7.88205L7.30767 5.58922C6.91776 5.20127 6.7228 5.0073 6.55721 5.00036C6.41335 4.99434 6.27521 5.06377 6.18366 5.18812C6.07828 5.33127 6.07828 5.62324 6.07828 6.20717V10.7928Z" fill="#E00020"/>
<path d="M11 10.7928C11 11.3768 11 11.6687 11.1075 11.8119C11.2009 11.9362 11.3418 12.0057 11.4885 11.9996C11.6574 11.9927 11.8562 11.7987 12.2539 11.4108L14.6044 9.11795C14.8235 8.90423 14.933 8.79737 14.9734 8.67119C15.0089 8.56038 15.0089 8.43962 14.9734 8.32881C14.933 8.20263 14.8235 8.09577 14.6044 7.88205L12.2539 5.58922C11.8562 5.20127 11.6574 5.0073 11.4885 5.00036C11.3418 4.99434 11.2009 5.06377 11.1075 5.18812C11 5.33127 11 5.62324 11 6.20717V10.7928Z" fill="#E00020"/>
</svg>
