<svg width="16" height="16" viewBox="0 0 16 16" fill="none" xmlns="http://www.w3.org/2000/svg">
<path d="M14.6667 8.00001H12M4.00004 8.00001H1.33337M8.00004 4.00001V1.33334M8.00004 14.6667V12M13.3334 8.00001C13.3334 10.9455 10.9456 13.3333 8.00004 13.3333C5.05452 13.3333 2.66671 10.9455 2.66671 8.00001C2.66671 5.05449 5.05452 2.66668 8.00004 2.66668C10.9456 2.66668 13.3334 5.05449 13.3334 8.00001ZM10 8.00001C10 9.10458 9.10461 10 8.00004 10C6.89547 10 6.00004 9.10458 6.00004 8.00001C6.00004 6.89544 6.89547 6.00001 8.00004 6.00001C9.10461 6.00001 10 6.89544 10 8.00001Z" stroke="#E00020" stroke-width="1.3" stroke-linecap="round" stroke-linejoin="round"/>
</svg>
