<svg width="16" height="16" viewBox="0 0 16 16" fill="none" xmlns="http://www.w3.org/2000/svg">
<path d="M6.06002 6C6.21675 5.55445 6.52612 5.17874 6.93332 4.93943C7.34052 4.70011 7.81928 4.61263 8.2848 4.69248C8.75032 4.77233 9.17256 5.01435 9.47674 5.37569C9.78091 5.73702 9.94739 6.19435 9.94668 6.66667C9.94668 8 7.94668 8.66667 7.94668 8.66667M8.00004 11.3333H8.00671M1.33337 5.68184V10.3182C1.33337 10.4812 1.33337 10.5628 1.35179 10.6395C1.36813 10.7075 1.39506 10.7726 1.43161 10.8322C1.47284 10.8995 1.53049 10.9571 1.64579 11.0724L4.92762 14.3543C5.04292 14.4696 5.10057 14.5272 5.16785 14.5684C5.2275 14.605 5.29253 14.6319 5.36055 14.6483C5.43728 14.6667 5.51881 14.6667 5.68187 14.6667H10.3182C10.4813 14.6667 10.5628 14.6667 10.6395 14.6483C10.7076 14.6319 10.7726 14.605 10.8322 14.5684C10.8995 14.5272 10.9572 14.4696 11.0725 14.3543L14.3543 11.0724C14.4696 10.9571 14.5272 10.8995 14.5685 10.8322C14.605 10.7726 14.632 10.7075 14.6483 10.6395C14.6667 10.5628 14.6667 10.4812 14.6667 10.3182V5.68184C14.6667 5.51878 14.6667 5.43725 14.6483 5.36052C14.632 5.2925 14.605 5.22747 14.5685 5.16782C14.5272 5.10054 14.4696 5.04289 14.3543 4.92759L11.0725 1.64576C10.9572 1.53046 10.8995 1.47281 10.8322 1.43158C10.7726 1.39503 10.7076 1.36809 10.6395 1.35176C10.5628 1.33334 10.4813 1.33334 10.3182 1.33334H5.68187C5.51881 1.33334 5.43728 1.33334 5.36055 1.35176C5.29253 1.36809 5.2275 1.39503 5.16785 1.43158C5.10057 1.47281 5.04292 1.53046 4.92762 1.64576L1.64579 4.92759C1.53049 5.04289 1.47284 5.10054 1.43161 5.16782C1.39506 5.22747 1.36813 5.2925 1.35179 5.36052C1.33337 5.43725 1.33337 5.51878 1.33337 5.68184Z" stroke="#53B24D" stroke-width="1.3" stroke-linecap="round" stroke-linejoin="round"/>
</svg>
