<svg width="18" height="20" viewBox="0 0 18 20" fill="none" xmlns="http://www.w3.org/2000/svg">
<path fill-rule="evenodd" clip-rule="evenodd" d="M13.3997 4.2345C10.7127 1.621 9.00085 0 9.00085 0C9.00085 0 7.2856 1.621 4.60343 4.2345C3.18602 5.61396 0 9.03675 0 12.44C0 14.7086 1.88807 16.548 4.21654 16.548C5.74502 16.548 7.07928 15.7543 7.81831 14.5682V14.5694C7.89277 14.4808 8.01424 14.4083 8.15075 14.4083C8.36777 14.4083 8.5651 14.5573 8.54229 14.742C8.37988 15.9659 7.67264 18.9814 4.88546 20H13.1141C10.3274 18.9814 9.62044 15.9659 9.4591 14.742C9.4349 14.5573 9.63393 14.4083 9.85065 14.4083C9.98421 14.4083 10.1072 14.4808 10.1817 14.5694L10.1834 14.5682C10.9193 15.7543 12.255 16.548 13.7833 16.548C16.1105 16.548 18 14.7086 18 12.44C18 9.03675 14.814 5.61396 13.3997 4.2345Z" fill="#D70022"/>
<path fill-rule="evenodd" clip-rule="evenodd" d="M9.00073 4.24161L10.1425 7.66999H13.8431L10.8492 9.78951L11.9939 13.2176L9.00073 11.0982L6.00768 13.2176L7.15067 9.78951L4.15576 7.66999H7.85914L9.00073 4.24161Z" fill="#FFFFFE"/>
</svg>
