<svg width="10" height="14" viewBox="0 0 10 14" fill="none" xmlns="http://www.w3.org/2000/svg">
<path d="M0 2.32642C0 1.67898 0 1.35526 0.134993 1.17681C0.252596 1.02135 0.432348 0.925152 0.626932 0.913534C0.850291 0.900198 1.11964 1.07977 1.65835 1.4389L8.66872 6.11248C9.11384 6.40923 9.33641 6.55761 9.41396 6.74462C9.48177 6.90813 9.48177 7.09188 9.41396 7.25538C9.33641 7.4424 9.11384 7.59077 8.66872 7.88752L1.65835 12.5611C1.11964 12.9202 0.850291 13.0998 0.626932 13.0865C0.432348 13.0749 0.252596 12.9787 0.134993 12.8232C0 12.6447 0 12.321 0 11.6736V2.32642Z" fill="#53B24D"/>
</svg>
