<svg width="12" height="8" viewBox="0 0 12 8" fill="none" xmlns="http://www.w3.org/2000/svg">
<path d="M0 0.928893C0 0.503446 0 0.290722 0.171152 0.17346C0.320255 0.0713044 0.548154 0.00808933 0.794858 0.000454756C1.07804 -0.00830877 1.41954 0.109689 2.10254 0.345685L10.9907 3.41679C11.555 3.61179 11.8372 3.70929 11.9355 3.83218C12.0215 3.93963 12.0215 4.06037 11.9355 4.16782C11.8372 4.29071 11.555 4.38821 10.9907 4.58321L2.10254 7.65432C1.41954 7.89031 1.07804 8.00831 0.794858 7.99954C0.548154 7.99191 0.320255 7.92869 0.171152 7.82654C0 7.70928 0 7.49655 0 7.07111V0.928893Z" fill="#3D8AEE"/>
</svg>
