<svg width="14" height="10" viewBox="0 0 14 10" fill="none" xmlns="http://www.w3.org/2000/svg">
<path d="M7.66671 7.95803C7.66671 8.71138 7.66671 9.08806 7.81888 9.27273C7.95109 9.43316 8.15057 9.52274 8.35831 9.51497C8.59743 9.50602 8.87897 9.25577 9.44203 8.75527L12.7698 5.79723C13.08 5.52151 13.2351 5.38364 13.2923 5.22085C13.3425 5.07789 13.3425 4.9221 13.2923 4.77914C13.2351 4.61635 13.08 4.47849 12.7698 4.20276L9.44203 1.24473C8.87897 0.744226 8.59743 0.493976 8.35831 0.485026C8.15057 0.47725 7.95109 0.566829 7.81888 0.727263C7.66671 0.911933 7.66671 1.28861 7.66671 2.04196V7.95803Z" fill="#FFA141"/>
<path d="M0.333374 7.95803C0.333374 8.71138 0.333374 9.08806 0.485551 9.27273C0.617756 9.43316 0.817234 9.52274 1.02498 9.51497C1.2641 9.50602 1.54563 9.25577 2.1087 8.75527L5.43648 5.79723C5.74668 5.52151 5.90177 5.38364 5.95893 5.22085C6.00912 5.07789 6.00912 4.9221 5.95893 4.77914C5.90177 4.61635 5.74668 4.47849 5.43648 4.20276L2.1087 1.24473C1.54563 0.744226 1.2641 0.493976 1.02498 0.485026C0.817234 0.47725 0.617756 0.566829 0.485551 0.727263C0.333374 0.911933 0.333374 1.28861 0.333374 2.04196V7.95803Z" fill="#FFA141"/>
</svg>
